<svg width="40" height="40" viewBox="0 0 40 40" fill="none" xmlns="http://www.w3.org/2000/svg">
<path d="M35.2501 29.2498H6.25005L4.17505 11.5498H38.9334L35.2501 29.2498Z" stroke="#010101" stroke-miterlimit="10"/>
<path d="M1.06665 2.06641C3.04998 2.89974 4.09998 10.6414 4.09998 10.6414L6.86665 34.6081" stroke="#010101" stroke-miterlimit="10"/>
<path d="M6.2334 34.6084H34.2417" stroke="#010101" stroke-miterlimit="10"/>
<path d="M6.86671 38.6751C7.98969 38.6751 8.90004 37.7647 8.90004 36.6417C8.90004 35.5188 7.98969 34.6084 6.86671 34.6084C5.74373 34.6084 4.83337 35.5188 4.83337 36.6417C4.83337 37.7647 5.74373 38.6751 6.86671 38.6751Z" stroke="#010101" stroke-miterlimit="10"/>
<path d="M34.1166 38.6751C35.1936 38.6751 36.0666 37.7647 36.0666 36.6417C36.0666 35.5188 35.1936 34.6084 34.1166 34.6084C33.0397 34.6084 32.1666 35.5188 32.1666 36.6417C32.1666 37.7647 33.0397 38.6751 34.1166 38.6751Z" stroke="#010101" stroke-miterlimit="10"/>
</svg>
